<svg xmlns="http://www.w3.org/2000/svg" width="24" height="24" viewBox="0 0 24 24"><path fill="#fff" d="M12 0C9.078 0 6.666 2.412 6.666 5.334c0 .593.161 1.14.344 1.676-.535-.183-1.083-.344-1.676-.344C2.412 6.666 0 9.078 0 12c0 2.922 2.412 5.334 5.334 5.334.593 0 1.14-.161 1.676-.344-.183.535-.344 1.083-.344 1.676C6.666 21.588 9.078 24 12 24c2.922 0 5.334-2.412 5.334-5.334 0-.593-.161-1.14-.344-1.676.535.183 1.083.344 1.676.344C21.588 17.334 24 14.922 24 12c0-2.922-2.412-5.334-5.334-5.334-.593 0-1.14.161-1.676.344.183-.535.344-1.083.344-1.676C17.334 2.412 14.922 0 12 0Z"/><path d="M12 2a3.333 3.333 0 0 0-3.333 3.333A3.333 3.333 0 0 0 12 8.667a3.333 3.333 0 0 0 3.333-3.334A3.333 3.333 0 0 0 12 2ZM5.333 8.667A3.333 3.333 0 0 0 2 12a3.333 3.333 0 0 0 3.333 3.333A3.333 3.333 0 0 0 8.667 12a3.333 3.333 0 0 0-3.334-3.333Zm13.334 0A3.333 3.333 0 0 0 15.333 12a3.333 3.333 0 0 0 3.334 3.333A3.333 3.333 0 0 0 22 12a3.333 3.333 0 0 0-3.333-3.333ZM12 15.333a3.333 3.333 0 0 0-3.333 3.334A3.333 3.333 0 0 0 12 22a3.333 3.333 0 0 0 3.333-3.333A3.333 3.333 0 0 0 12 15.333Z"/></svg>
